<svg version="1.1" xmlns="http://www.w3.org/2000/svg" viewBox="0 0 32 32" fill="currentColor"><path d="M16 6c-3.32 0-6 2.704-6 6s2.68 6 6 6 6-2.704 6-6-2.68-6-6-6zM16 8c2.232 0 4 1.78 4 4s-1.768 4-4 4-4-1.78-4-4c0-2.22 1.768-4 4-4zM16 0c-6.616 0-12 5.384-12 12 0 12.524 11.44 19.812 11.44 19.812 0.326 0.224 0.794 0.224 1.12 0 0 0 11.44-7.372 11.44-19.812 0-6.616-5.384-12-12-12zM16 2c5.534 0 10 4.464 10 10 0 10.616-9.012 16.944-10 17.626-0.994-0.68-10-6.926-10-17.626 0-5.536 4.466-10 10-10z"/></svg>